<?xml version="1.0" encoding="UTF-8"?>
<svg version="1.1" viewBox="0 0 2048 1153" width="300" height="169" xmlns="http://www.w3.org/2000/svg">
<path transform="translate(949,165)" d="m0 0h9l23 3 13 5 11 8 9 8 9 14 6 15 2 9v34l-2 11-7 22-8 18-9 17-11 18-9 14-19 28-11 16-11 15-24 34-10 14-7 10-12 16-13 19-12 16-11 16-12 17-9 13-10 14-12 17-16 23-13 20-11 17-10 16-13 21-12 21-16 29-13 28-9 23-8 24v11l6 12 7 6 8 2h27l14-2 25-10 26-14 22-14 18-13 12-9 17-14 11-9 15-13 17-16 20-20 8-7 32-32 7-8 35-35 7-8 28-28 7-8 28-28 8-7 8-8 8-7 10-9 24-16 16-8 13-4 6-1h13l11 4 11 8 6 9 7 16 3 12-1 10-5 12-2 5-2 20-9 24-10 27-9 21-16 35-6 15-1 6 5-1 8-5 7-7 10-13 15-20 8-11 11-13 13-16 10-13 13-14 7-8 15-16 34-34 8-7 13-11 15-10 12-7 11-4 6-1h21l11 4 8 6 6 9 5 12 3 11 1 9v27l-1 11-2 4-1 17-5 17-2 5-5 22-12 35-6 15-6 16-3 10v3l8-2 5-5 6-7 13-18 10-14 6-9 11-13 14-19 11-13 10-13 12-14 9-10 11-12 7-8 12-12 7-8 13-13 8-7 13-11 10-7 9-4 10-2 11-1h13l10 2 9 6 8 9 5 12 2 12 1 3v15l-3 7v15l-5 16-7 23-12 36-14 34-10 26-11 30-9 25-5 17-6 15-6 25-4 15-1 9v21l4 13 4 8 9 9 12 7 7 2 21 1 14-1 11-3 17-7 21-11 15-10 16-13 12-11 11-11 9-11 8-10 12-19 10-18 12-25 2-1 16 1 3 2-1 10-3 10-11 22-11 17-14 20-11 13-7 8-14 14-17 13-14 10-16 9-25 12-21 7-16 3h-27l-15-4-16-8-13-11-9-13-6-18-1-6v-24l6-31 8-29 7-23 8-21 16-41 12-34 11-26 10-28 8-27 8-31v-16l-4-10-7-9-5-4-3-1h-12l-15 9-12 10-10 8-10 9-13 12-7 7-7 8-7 7-7 8-11 13-8 10-9 10-9 11-10 12-9 11-12 15-10 14-13 16-12 16-10 13-9 13-10 12-10 16-12 18-10 14-8 11-4 3h-13l-5-2 1-10 11-24 9-21 13-32 9-24 16-45 7-26 6-23v-10l5-20 3-8 1-10v-35l-4-11-5-8v-2l-9-3h-12l-10 3-16 10-16 13-11 10-8 7-35 35-7 8-8 8-9 11-24 28-10 12-10 13-13 16-13 17-11 13-10 14-10 13-13 17-13 18-11 16-13 18-13 17-8 5h-8l-4-4v-8l3-15 9-17 12-22 18-35 8-16 11-24 11-23 17-40 7-19 7-22 7-24 4-15 1-29-1-9-5-8-7-4-4-1h-10l-14 7-16 11-12 9-10 9-11 9-10 9-8 7-65 65-7 8-12 14-11 12-9 10-10 10-7 8-13 12-15 15-11 9-13 13-8 7-10 10-11 9-13 11-12 9-18 13-13 9-20 12-22 12-22 10-24 7-17 2h-20l-13-2-14-7-9-9-5-10-1-3v-39l6-20 9-21 20-40 20-35 14-22 15-23 14-22 12-17 13-19 8-12 16-23 14-20 14-19 8-12 11-15 13-18 11-16 12-17 10-13 10-15 10-14 11-16 16-23 10-16 15-25 10-18 7-16 6-19 1-6v-28l-3-11-6-12-9-10-12-7-12-4h-17l-21 7-16 9-14 11-14 12-10 13-7 11-6 13-1 16-1 68-3 12-6 19-9 16-11 12-10 9-13 8-12 5-9 2h-15l-15-3-12-2-11-1h-21l-7 2-10 6-16 10-13 11-8 10-8 16-2 10v15l3 14 4 12 1 5v26l-3 14-6 15-10 13-7 7-12 9-11 5-11 3-10 1-84 1-7 3-17 12-13 10-7 9-5 13-1 4v15l4 33 1 12v17l-2 15-7 19-7 11-12 12-13 8-10 4-16 3h-28l-28-2h-34l-8 4-21 14-11 7-6 2h-7l-4-4-1-2v-8l5-9 7-6 11-7 15-7 17-5 12-1h23l18 2 12 3 7 1h16l12-4 12-6 12-11 5-8 5-19 1-7v-20l-4-34v-18l3-17 7-16 9-12 12-11 15-10 13-6 10-3 7-1h33l13 1 12 3h15l21-7 14-9 10-9 6-9 4-11 1-9v-17l-4-34-1-7v-15l4-21 5-12 7-10 9-10 13-10 16-9 13-5 14-4 8-1h20l14 2 9 3 9 1h18l10-4 9-7 10-9 9-11 5-10 7-30v-17l-3-15v-11l3-11 2-24 7-19 8-14 10-13 12-13 12-10 15-10 16-8 12-4z" fill="#090909"/>
<path transform="translate(1181,511)" d="m0 0h13l11 4 7 5h-3l-6-3-8-1h-14l-13 1-14 5-15 9-16 13-14 11-11 11-8 7-64 64-7 8-27 27-7 8-60 60-8 7-13 13-8 7-14 12-17 14-14 11-28 20-17 10-2-1 22-14 18-13 12-9 17-14 11-9 15-13 17-16 20-20 8-7 32-32 7-8 35-35 7-8 28-28 7-8 28-28 8-7 8-8 8-7 10-9 24-16 16-8 13-4z" fill="#FEFEFE"/>
<path transform="translate(949,165)" d="m0 0h9l23 3 13 5 11 8 9 8 9 14 6 15 2 9v34l-2 11-7 22-8 18-9 17-10 16-1-2 15-26 8-17 7-21 4-19v-30l-3-15-5-11-6-10-7-8-13-9-11-5-8-2-10-1h-14l-16 2-16 5-19 10-10 8-13 11-11 11-11 14-8 15-1-3 8-15 11-14 12-13 12-10 15-10 16-8 12-4z" fill="#FEFEFE"/>
<path transform="translate(505,607)" d="m0 0h17l-3 2-22 3-16 5-11 6-14 11-8 8-7 10-5 12-3 15v21l2 23 1 18v14l-2 15-5 13-6 8-5 6-11 7-2-1 11-8 8-9 4-8 4-16 1-7v-20l-4-34v-18l3-17 7-16 9-12 12-11 15-10 13-6 10-3z" fill="#FEFEFE"/>
<path transform="translate(451,683)" d="m0 0h1l5 44 1 12v17l-2 15-7 19-5 8-1-2 6-12 4-18 1-8v-14l-3-39z" fill="#FEFEFE"/>
<path transform="translate(1408,524)" d="m0 0 9 1 12 6 7 8 6 13 4 14 1 9v27l-1 11-3 4v-52l-4-14-7-13-7-6-13-6z" fill="#C9C9C9"/>
<path transform="translate(298,805)" d="m0 0h12l-4 2-17 4-13 5-15 8-9 7-6 5 1-5 8-7 11-7 15-7z" fill="#FEFEFE"/>
<path transform="translate(1630,535)" d="m0 0h13l10 2 9 6 8 9 5 12v5l-8-16-8-8-9-5-8-2-23-1v-1z" fill="#FEFEFE"/>
<path transform="translate(1178,733)" d="m0 0 2 1-14 19-9 12-3 3 2-6 12-23 4-4z" fill="#FEFEFE"/>
<path transform="translate(1010,682)" d="m0 0v3l-8 8-7 8-11 11-7 8-13 12-15 15-2-1 50-50 7-8z" fill="#FEFEFE"/>
<path transform="translate(1225,541)" d="m0 0 3 4 3 9 1 12-5 15-2 1 1-14v-12z" fill="#FEFEFE"/>
<path transform="translate(1826,798)" d="m0 0 5 2-1 10-3 10-11 22-11 17-2 1 2-5 10-17 10-21 3-9-1-8z" fill="#FEFEFE"/>
<path transform="translate(672,418)" d="m0 0 2 1-16 12-9 9-9 13-5 11-2 8h-1l1-9 5-12 7-10 9-10 13-10z" fill="#FEFEFE"/>
<path transform="translate(1806,807)" d="m0 0 1 3-12 25-11 17-8 11v-3l12-19 10-18z" fill="#FEFEFE"/>
<path transform="translate(1408,524)" d="m0 0 9 1 12 6 7 8 6 13 3 10-1 4-3-9-5-12-6-9-9-6-9-4z" fill="#FEFEFE"/>
<path transform="translate(1569,567)" d="m0 0 2 1-14 14-7 8-15 15-7 8-5 4 2-4 15-16 9-9 7-8z" fill="#FEFEFE"/>
<path transform="translate(280,836)" d="m0 0 2 1-13 9-8 5-6 2h-7l-4-4-1-2v-8l2-1v8l5 5 6-1 20-12z" fill="#FEFEFE"/>
<path transform="translate(689,767)" d="m0 0 1 3-7 16-6 21-3 14h-1v-11l6-20 9-21z" fill="#FEFEFE"/>
<path transform="translate(652,520)" d="m0 0 2 2 3 12v26l-2 11h-1l1-24-2-19z" fill="#FEFEFE"/>
<path transform="translate(526,607)" d="m0 0h12l13 1 7 2v1h-13l-20-2z" fill="#FEFEFE"/>
<path transform="translate(1791,876)" d="m0 0v3l-11 13-7 8-14 14-2-1 18-18 9-11z" fill="#FEFEFE"/>
<path transform="translate(917,773)" d="m0 0 2 1-12 12-11 9-8 7-2-1 13-12 8-7z" fill="#FEFEFE"/>
<path transform="translate(1675,572)" d="m0 0 2 4 1 3v15l-3 7h-1z" fill="#FEFEFE"/>
<path transform="translate(838,283)" d="m0 0h1l-1 31-2-4-1-5v-11z" fill="#FEFEFE"/>
<path transform="translate(1406,757)" d="m0 0 4 1-11 16-1-2 6-14z" fill="#FEFEFE"/>
<path transform="translate(1674,605)" d="m0 0h1v11l-5 16-1-4 3-14 1-8z" fill="#FEFEFE"/>
<path transform="translate(1283,609)" d="m0 0v3l-7 7-7 8-6 5 2-4 16-17z" fill="#FEFEFE"/>
</svg>
