<?xml version="1.0" encoding="UTF-8"?>
<svg version="1.1" viewBox="0 0 2048 1153" width="300" height="169" xmlns="http://www.w3.org/2000/svg">
<path transform="translate(948,164)" d="m0 0h14l12 2 9 2 16 8 11 9 10 11 7 12 3 8 1 7v30l-2 20-5 17-9 22-10 19-8 15-4 8-8 11-5 9-8 10-6 11-14 15-6 12-8 9-5 10-11 12-6 8-3 7-11 14-3 7-15 16-3 6-2 5-10 11-4 9-8 10-5 5-4 5-4 9-9 10-4 9-10 12-4 9-14 15-3 4-3 8-9 10-4 10-4 5-4 9-10 13-4 8-9 12-5 10-10 19-4 8-8 9-4 10-4 6-4 9-3 7-2 11-4 6-3 15-4 6-2 14v15l3 7 14 7 12 1 11-2 4-4 16-1 8-3 17-9 29-13 22-14 12-9 14-10 10-9 14-11 12-11 10-9 8-7 25-25 8-7 10-9 20-20 9-11 37-37 7-8 16-17 54-54 8-7 13-11 16-11 11-7 19-9 5-2 6-1h19l10 3 9 6 11 11 4 8 2 11 1 11 1 8-3 5-1 18-2 7-4 5-1 9-2 7-3 3-3 16-3 3-5 18-4 7-3 7-11 21-5 10-4 16-4 6-1 3 6-3 21-21 6-8 4-8 11-12 5-6 5-10 8-9h2l2-4 11-12 5-8 12-11 9-11 11-12 9-10h2l2-4 22-22 10-9 9-6 17-12 21-10 8-4h8l13 5 16 8 8 8 4 9 4 11 2 8v68l-2 6-4 4-1 14-6 7v13l-3 9-3 6-4 14-8 16-2 5-1 10-6 9v2l6-3 7-8 8-8 4-5 3-7 11-12 7-8 2-7 16-17 9-11 3-7 16-17 9-11 3-7 5-5 13-11 35-35 10-13 7-7 9-6 11-6 15-7h8l2 1v3l7-2h9l10 2 10 6 7 8 8 16 2 7v15l-1 7v4 6l-2 4-5 30-3 4-4 17-3 4-4 16-3 6-4 14-4 8-4 9-6 18-8 22-9 21-4 13-3 8-3 11-3 5-3 15-3 3-3 11-1 7-4 4-1 19v48l3 6 6 7 7 5 12 2h9l5 4h10l4-4 15-1 10-3 19-10 10-5 13-7 12-11 10-6 9-7 18-18 7-10 8-10 15-23 8-16 4-10 5-12 1-2h7l11 8 2 3-2 14-9 20-10 18-7 11-4 7-14 15-9 10-7 8-4 5h-2l-1 5-5 5-8 4-12 11-7 5-16 8-21 10-10 4-9 2-5 3-6 1h-53l-7-3-12-6-10-9-10-12-7-15-1-4v-52l2-13 3-4 3-20 5-14 10-30 9-19 5-17 8-22 4-8 5-14 5-12 8-19 12-36 2-8 3-15 3-6 1-14v-25l-3-5-9-10-6-4-6 2-11 10-9 4-12 11-5 4-4 5-5 5-8 7-7 2-8 7-3 9-8 8-7 8-29 29-4 10-7 7-7 8-9 9-4 10-10 11h-2l-2 4-4 5-3 7-13 14-7 8-4 5-3 7-13 14-5 6-2 7-2 3h-2l-2 4-5 6-3 8-10 11-4 9-9 11-8 8-5 4h-15l-2-2-1-5 1-15 6-11 10-21 3-6 2-10 5-9 3-8 3-5 4-15 4-10 3-10 4-8 6-14 3-11 4-11 2-15 4-8 1-9v-12l1-12 5-7 1-19v-49l-3-5-1-3-4-2-3-1h-10l-16 8-16 9-13 12-94 94-4 10-16 17-8 8-4 10-7 7-7 8-9 9-4 10-9 10-5 5-4 5-2 7-17 17-3 9-7 8-11 11-4 10-10 12-5 10-12 13-3 1h-21l-2-1 1-9 5-8 2-12 12-23 10-21 4-7 5-8 7-10 7-14 3-12 19-38 11-23 6-18 4-9 5-10 2-15 4-10 4-15 3-6 1-6 1-43-2-8-5-6-2-1h-7l-16 8-13 7-13 10-8 4-13 12-140 140-7 8-13 13-8 7-9 9-8 7-13 13-9 7-7 7-8 7-14 12-10 9-4 2v2l-9 7-10 6-11 8-10 6-14 9-16 8-23 11-12 3-5 3-6 1-19 1h-24l-13-1-16-8-7-7-7-15-1-4v-21l5-22 7-21 9-20 10-19 24-48 10-14 8-13 8-11 4-7 9-13 7-11 7-10 6-9 7-10 6-10 8-11 6-10 8-11 6-10 7-7 8-11 4-7 9-12 4-8 11-12 12-18 7-10 6-10 10-11 5-7 3-6 10-14 5-8 9-12 4-8 11-12 7-11 13-19 8-16 8-11 4-6 6-13 5-16 2-8 1-31v-18l-2-9-9-11-11-9-7-2h-27l-9 2-12 5-11 6-9 6-12 11-5 5-11 12-8 15-2 4-2 20-4 4-1 8-1 64-1 11-4 8-4 9-7 13-15 16-8 8-5 4-10 4-2 2-6 1h-39l-14-1-3-3-6-1h-23l-5 4-9 3-13 11-8 3-15 14-7 9-2 14-5 6-1 9 2 6 4 3 1 4 1 19 1 5v28l-3 21-8 10-7 13-7 7-8 2-11 11-5 1-100 1-4 4-12 5-13 7-10 9-10 11-2 12-2 6-2 4v7l4 21v48l-3 18-5 12-7 11-11 12h-2v2l-8 7-16 3h-2l-1 3-3 1h-56l-4-4-12-1h-23l-7 5-11 3-16 11-14 7h-10l-4-5v-6l7-13 10-8 19-10 11-5 16-2 4-4 6-1h14l5 3 2 2 20 1h38l10-2 10-7h2l2-4 6-8 5-15 3-16v-14l-2-7-2-29-1-8 1-12 5-23 6-12 11-14 11-9 14-8 11-5 7-3 6-1 86-1 9-2 4-3 10-5 15-15 3-5 1-48v-37l1-16 7-20 7-11 7-9 12-12 18-13 14-7 5-1 96-1 6-3 7-7 9-5 6-11 3-5 6-14 1-51 2-13 1-5-2-1v-9l4-6 1-1 1-16 2-6 8-13 8-14 11-12 17-17 15-11 15-9 22-6z" fill="#1050C2"/>
<path transform="translate(1115,544)" d="m0 0 2 1-133 133v-3l37-37 7-8 16-17 54-54 8-7z" fill="#FEFEFE"/>
<path transform="translate(894,185)" d="m0 0 2 1-10 10-8 7-9 9-7 8-7 6 2-5 11-12 17-17z" fill="#FEFEFE"/>
<path transform="translate(937,722)" d="m0 0 2 1-38 38-10 9-4 3-3-1 8-7 12-11 8-7z" fill="#FEFEFE"/>
<path transform="translate(1550,585)" d="m0 0 1 2-7 8-18 18-4-1 10-9z" fill="#FEFEFE"/>
<path transform="translate(461,624)" d="m0 0 2 1-24 24 2-4 8-11z" fill="#FEFEFE"/>
<path transform="translate(666,419)" d="m0 0 2 1-18 18-4 5h-2l2-5 15-15z" fill="#FEFEFE"/>
<path transform="translate(948,164)" d="m0 0 4 1-5 3-13 2h-9l4-2z" fill="#FEFEFE"/>
<path transform="translate(451,690)" d="m0 0 2 3 3 14v4l-4-2-1-6z" fill="#FEFEFE"/>
<path transform="translate(967,166)" d="m0 0 13 1 5 2v1h-10l-8-3z" fill="#FEFEFE"/>
<path transform="translate(429,679)" d="m0 0h1v13l-1 8-2-1v-10z" fill="#FEFEFE"/>
<path transform="translate(1636,534)" d="m0 0 13 1 5 2v1h-10l-8-3z" fill="#FEFEFE"/>
<path transform="translate(915,172)" d="m0 0 2 1-11 8-4 2-3-1 11-7z" fill="#FEFEFE"/>
<path transform="translate(674,804)" d="m0 0 2 1-3 12-2 1 1-9z" fill="#FEFEFE"/>
<path transform="translate(1230,556)" d="m0 0h1l2 13-3 3z" fill="#FEFEFE"/>
<path transform="translate(257,822)" d="m0 0v3l-5 5-4 1 3-5z" fill="#FEFEFE"/>
</svg>
